<svg width="30" height="30" viewBox="0 0 30 30" fill="none" xmlns="http://www.w3.org/2000/svg">
<g clip-path="url(#clip0)">
<path d="M19.7151 19.2063C19.7801 19.2922 19.7797 19.4109 19.7135 19.497L15.1906 25.3798C15.1453 25.4395 15.0749 25.474 15.0005 25.474C14.9262 25.474 14.8559 25.4395 14.8103 25.3798L10.2871 19.497C10.2544 19.4543 10.2375 19.4029 10.2375 19.3512C10.2375 19.3002 10.2537 19.249 10.286 19.2064C10.3507 19.1201 10.4654 19.0877 10.566 19.1281L13.5607 20.3101V13.3778C13.5607 13.2452 13.6677 13.1383 13.8006 13.1383H16.2007C16.3329 13.1383 16.4406 13.2452 16.4406 13.3778V20.3105L19.4352 19.1284C19.5356 19.0881 19.6503 19.1205 19.7151 19.2063ZM13.5523 4.537C-1.95385 4.83463 -0.101477 12.512 0.253967 13.6393C0.634668 15.5547 2.10187 16.5131 3.59081 15.9697L6.42377 15.0833C7.95008 14.5261 8.91842 12.4495 8.5852 10.4437L8.5221 10.064C13.673 8.6062 18.1158 8.98036 21.5815 9.94512L21.5543 10.1071C21.2226 12.113 22.1895 14.1902 23.7167 14.747L26.5496 15.9279C27.8299 16.3952 29.0934 15.4952 29.665 14.058C29.6724 14.0642 29.6769 14.0683 29.6769 14.0683C29.6769 14.0683 29.7553 13.8748 29.8344 13.5436C29.8408 13.5178 29.8456 13.4895 29.8524 13.4641C29.8656 13.4035 29.8788 13.3408 29.892 13.2725C29.8999 13.2339 29.9089 13.1973 29.9163 13.1584L29.9135 13.156C30.3275 10.712 29.8994 4.22498 13.5523 4.537Z" fill="#F83540"/>
</g>
<defs>
<clipPath id="clip0">
<rect width="30" height="30" fill="white"/>
</clipPath>
</defs>
</svg>
