<svg width="25" height="25" viewBox="0 0 25 25" fill="none" xmlns="http://www.w3.org/2000/svg">
<path d="M16.5319 14.1869C16.5319 16.4102 14.7233 18.2188 12.5 18.2188C10.2767 18.2188 8.46879 16.4102 8.46879 14.1869C8.46879 11.9636 10.2767 10.155 12.5 10.155C14.7233 10.155 16.5319 11.9643 16.5319 14.1869ZM25 8.46179V19.9134C25 21.44 23.7622 22.6778 22.2356 22.6778H2.76442C1.23777 22.6778 0 21.44 0 19.9134V8.46179C0 6.93514 1.23777 5.69737 2.76442 5.69737H6.16465V4.74089C6.16465 3.40498 7.24692 2.32202 8.58351 2.32202H16.4165C17.7531 2.32202 18.8354 3.40498 18.8354 4.74089V5.69668H22.2356C23.7622 5.69737 25 6.93514 25 8.46179ZM18.6052 14.1869C18.6052 10.8205 15.8664 8.08168 12.5 8.08168C9.13432 8.08168 6.39548 10.8205 6.39548 14.1869C6.39548 17.5533 9.13432 20.2921 12.5 20.2921C15.8664 20.2921 18.6052 17.5533 18.6052 14.1869Z" fill="#903938"/>
</svg>
