<svg width="18" height="22" viewBox="0 0 18 22" fill="none" xmlns="http://www.w3.org/2000/svg">
<path d="M2.19642 10.078C2.19642 7.26656 2.19642 4.45606 2.19939 1.64457C2.19939 0.946393 2.47134 0.405456 3.13194 0.102847C3.30104 0.0257118 3.47707 0 3.662 0C6.93333 0.00197783 10.2047 0.000988916 13.476 0.000988916C13.5897 0.000988916 13.7035 0.00296675 13.8182 0.00395567C13.8933 0.113725 13.8884 0.238329 13.8884 0.362932C13.8884 1.39141 13.8884 2.41988 13.8884 3.44835C13.8884 3.53538 13.8864 3.62339 13.8953 3.71041C13.9141 3.88941 14.014 3.98533 14.192 4.00313C14.279 4.01203 14.367 4.01006 14.454 4.01006C15.4756 4.01006 16.4962 4.01006 17.5177 4.01006C17.6492 4.01006 17.7817 4.00313 17.8984 4.08027C17.9677 4.14653 17.938 4.23157 17.939 4.30871C17.94 9.5915 17.939 14.8743 17.941 20.1571C17.941 20.9897 17.2458 21.6751 16.4378 21.6721C12.1855 21.6543 7.93214 21.6583 3.6798 21.6701C3.01129 21.6721 2.28543 21.0906 2.234 20.3608C2.22115 20.1798 2.20434 19.9989 2.19741 19.8179C2.13116 19.7487 2.12918 19.6597 2.12918 19.5736C2.12621 18.9872 2.12621 18.3998 2.12918 17.8134C2.12918 17.7332 2.13313 17.6531 2.18159 17.5839C2.30323 17.489 2.44662 17.5177 2.58309 17.5177C5.39557 17.5157 8.20805 17.5167 11.0215 17.5167C12.0589 17.5167 13.0963 17.5167 14.1336 17.5167C14.2068 17.5167 14.28 17.5167 14.3532 17.5167C15.2036 17.5038 15.6318 17.0766 15.6338 16.2212C15.6378 14.629 15.6348 13.0359 15.6358 11.4437C15.6358 11.3043 15.618 11.1668 15.5933 11.0304C15.5092 10.5596 15.1483 10.2224 14.6696 10.169C14.546 10.1552 14.4214 10.1601 14.2978 10.1601C10.4034 10.1601 6.51008 10.1601 2.61573 10.1581C2.4753 10.1581 2.32103 10.2007 2.19939 10.082L2.19642 10.078Z" fill="#3380F4"/>
<path d="M9.93033 6.35376C11.565 6.35376 13.1998 6.35376 14.8345 6.35376C15.1895 6.35376 15.414 6.57825 15.3734 6.88086C15.3428 7.10931 15.1766 7.27248 14.9452 7.29523C14.8711 7.30215 14.7969 7.29918 14.7227 7.29918C11.5126 7.29918 8.30254 7.29918 5.09245 7.29918C4.66523 7.29918 4.4447 7.14293 4.4358 6.83636C4.4269 6.52188 4.65534 6.35376 5.09344 6.35376C6.70541 6.35376 8.31836 6.35376 9.93033 6.35376Z" fill="white"/>
<path d="M7.76834 3.89209C8.6663 3.89209 9.56524 3.89209 10.4632 3.89209C10.5749 3.89209 10.6857 3.89209 10.7905 3.93956C10.9784 4.02362 11.0902 4.22338 11.0655 4.42908C11.0407 4.63676 10.8884 4.79993 10.6778 4.83059C10.5908 4.84345 10.4998 4.84345 10.4118 4.84345C8.63762 4.84345 6.86248 4.84345 5.08832 4.84345C4.66308 4.84345 4.44057 4.68423 4.43563 4.37766C4.43068 4.0612 4.65913 3.89209 5.09426 3.89209C5.98529 3.89209 6.87632 3.89209 7.76735 3.89209H7.76834Z" fill="white"/>
<path d="M0.00115572 18.8879C-0.00475167 18.5782 0.00410942 18.2744 0.222683 18.0174C0.418611 17.7866 0.658844 17.6386 0.963075 17.6298C1.37561 17.6181 1.78814 17.6298 2.20166 17.6298C2.19772 18.3611 2.19378 19.0933 2.18984 19.8246C1.82752 19.8246 1.46422 19.8295 1.1019 19.8227C0.523959 19.8119 0.0651524 19.4186 0.00214028 18.8879H0.00115572Z" fill="#124BA0"/>
<path d="M17.8977 4.07924C16.6793 4.07924 15.461 4.08023 14.2426 4.07924C13.937 4.07924 13.8184 3.96057 13.8174 3.65797C13.8174 2.43962 13.8174 1.22127 13.8174 0.00292969C13.8569 0.034575 13.8995 0.0622647 13.9351 0.0978657C15.2236 1.38543 16.5122 2.67399 17.7997 3.96255C17.8354 3.99815 17.865 4.03969 17.8977 4.07924Z" fill="#124BA0"/>
<path d="M2.29515 9.55415C2.39258 9.5563 2.49 9.56167 2.58742 9.56167C6.69543 9.56167 10.8045 9.56167 14.9125 9.56167C15.494 9.56167 15.9253 9.87625 16.0815 10.4109C16.1323 10.5859 16.1455 10.7674 16.1455 10.951C16.1455 12.7354 16.1455 14.5198 16.1455 16.3042C16.1455 17.1889 15.6705 17.6914 14.8353 17.6914C10.7649 17.6914 6.6934 17.6914 2.62294 17.6914C2.51841 17.6914 2.41389 17.7011 2.30936 17.7053C2.22615 17.7741 2.12771 17.7698 2.03028 17.7698C1.71569 17.7719 1.40109 17.7633 1.08751 17.773C0.545596 17.7891 0.132563 18.2314 0.112266 18.8048C0.108207 18.9046 0.128504 19.0141 0.0422435 19.0925C-0.0257498 18.9164 0.00875427 18.7318 0.00875427 18.5525C0.0057098 16.0165 0.00875427 13.4805 0.00875427 10.9445C0.00875427 10.048 0.46644 9.56166 1.30874 9.55952C1.63856 9.55952 1.96737 9.55522 2.29718 9.552L2.29515 9.55415Z" fill="#2973E1"/>
<path d="M2.49614 15.6011H1.28418V11.8507H2.50616C2.85005 11.8507 3.14608 11.9258 3.39426 12.076C3.64244 12.2249 3.8333 12.4391 3.96685 12.7187C4.10151 12.9983 4.16884 13.3328 4.16884 13.7222C4.16884 14.1129 4.10151 14.4486 3.96685 14.7294C3.8333 15.0102 3.64133 15.2257 3.39092 15.3758C3.14163 15.526 2.84337 15.6011 2.49614 15.6011ZM2.00702 14.9217H2.46609C2.67977 14.9217 2.85951 14.8802 3.0053 14.7972C3.1522 14.7129 3.26238 14.5829 3.33583 14.4071C3.4104 14.2301 3.44768 14.0018 3.44768 13.7222C3.44768 13.4451 3.4104 13.2186 3.33583 13.0428C3.26238 12.867 3.15276 12.7376 3.00697 12.6546C2.86117 12.5716 2.68144 12.5301 2.46776 12.5301H2.00702V14.9217Z" fill="white"/>
<path d="M7.84604 13.7259C7.84604 14.1349 7.77537 14.4828 7.63403 14.7697C7.49381 15.0566 7.30238 15.2757 7.05977 15.4271C6.81827 15.5773 6.54672 15.6523 6.24512 15.6523C5.94129 15.6523 5.66863 15.5766 5.42713 15.4253C5.18563 15.2739 4.99476 15.0547 4.85454 14.7679C4.71431 14.481 4.6442 14.1336 4.6442 13.7259C4.6442 13.3169 4.71431 12.969 4.85454 12.6821C4.99476 12.3952 5.18563 12.1767 5.42713 12.0265C5.66863 11.8751 5.94129 11.7994 6.24512 11.7994C6.54672 11.7994 6.81827 11.8751 7.05977 12.0265C7.30238 12.1767 7.49381 12.3952 7.63403 12.6821C7.77537 12.969 7.84604 13.3169 7.84604 13.7259ZM7.11319 13.7259C7.11319 13.461 7.07702 13.2376 7.00468 13.0557C6.93345 12.8738 6.83274 12.7358 6.70253 12.6418C6.57232 12.5478 6.41985 12.5008 6.24512 12.5008C6.07039 12.5008 5.91792 12.5478 5.78771 12.6418C5.6575 12.7358 5.55623 12.8738 5.48389 13.0557C5.41266 13.2376 5.37705 13.461 5.37705 13.7259C5.37705 13.9908 5.41266 14.2142 5.48389 14.3961C5.55623 14.578 5.6575 14.716 5.78771 14.81C5.91792 14.904 6.07039 14.951 6.24512 14.951C6.41985 14.951 6.57232 14.904 6.70253 14.81C6.83274 14.716 6.93345 14.578 7.00468 14.3961C7.07702 14.2142 7.11319 13.9908 7.11319 13.7259Z" fill="white"/>
<path d="M11.398 13.1637H10.6669C10.6535 13.0599 10.6262 12.9678 10.5851 12.8872C10.5439 12.8054 10.491 12.7358 10.4265 12.6784C10.3619 12.621 10.2874 12.5771 10.2028 12.5466C10.1193 12.5161 10.0286 12.5008 9.93066 12.5008C9.75371 12.5008 9.59957 12.549 9.46825 12.6455C9.33693 12.7407 9.23509 12.8799 9.16275 13.063C9.09042 13.2449 9.05425 13.4659 9.05425 13.7259C9.05425 13.9932 9.09042 14.2179 9.16275 14.3998C9.23621 14.5817 9.33859 14.719 9.46992 14.8118C9.60124 14.9046 9.75315 14.951 9.92566 14.951C10.0225 14.951 10.1121 14.9369 10.1944 14.9089C10.2779 14.8808 10.3519 14.8399 10.4164 14.7862C10.481 14.7312 10.5344 14.6647 10.5767 14.5866C10.6201 14.5084 10.6502 14.4193 10.6669 14.3192L11.398 14.3229C11.3791 14.495 11.3318 14.661 11.2561 14.821C11.1816 14.9797 11.0809 15.1219 10.954 15.2476C10.8282 15.3722 10.678 15.471 10.5033 15.5443C10.3296 15.6163 10.1332 15.6523 9.91397 15.6523C9.60903 15.6523 9.33637 15.5766 9.09598 15.4253C8.8567 15.2739 8.66751 15.0547 8.5284 14.7679C8.39039 14.481 8.32139 14.1336 8.32139 13.7259C8.32139 13.3169 8.39151 12.969 8.53173 12.6821C8.67196 12.3952 8.86227 12.1767 9.10266 12.0265C9.34305 11.8751 9.61348 11.7994 9.91397 11.7994C10.1121 11.7994 10.2957 11.83 10.4649 11.891C10.6351 11.952 10.7859 12.0412 10.9173 12.1584C11.0486 12.2743 11.1554 12.4166 11.2378 12.585C11.3212 12.7535 11.3747 12.9464 11.398 13.1637Z" fill="white"/>
<path d="M12.5207 11.8507L13.2101 13.1289H13.2368L13.9296 11.8507H14.746L13.7026 13.7259L14.7693 15.6011H13.938L13.2368 14.321H13.2101L12.509 15.6011H11.681L12.7511 13.7259L11.701 11.8507H12.5207Z" fill="white"/>
</svg>
