<svg width="24" height="24" viewBox="0 0 24 24" fill="none" xmlns="http://www.w3.org/2000/svg">
<path opacity="0.2" d="M3.75 6.8125H13.5C13.8797 6.8125 14.1875 7.1203 14.1875 7.5V16.5C14.1875 16.8797 13.8797 17.1875 13.5 17.1875H3.75C3.3703 17.1875 3.0625 16.8797 3.0625 16.5V7.5C3.0625 7.1203 3.3703 6.8125 3.75 6.8125Z" stroke="#186E77" stroke-width="0.125"/>
<path d="M14.25 9H19.5" stroke="#186E77" stroke-width="2" stroke-linecap="round" stroke-linejoin="round"/>
<path d="M14.25 15H19.5" stroke="#186E77" stroke-width="2" stroke-linecap="round" stroke-linejoin="round"/>
<path d="M6 6.75V3.75C6 3.55109 6.07902 3.36032 6.21967 3.21967C6.36032 3.07902 6.55109 3 6.75 3H18.75C18.9489 3 19.1397 3.07902 19.2803 3.21967C19.421 3.36032 19.5 3.55109 19.5 3.75V20.25C19.5 20.4489 19.421 20.6397 19.2803 20.7803C19.1397 20.921 18.9489 21 18.75 21H6.75C6.55109 21 6.36032 20.921 6.21967 20.7803C6.07902 20.6397 6 20.4489 6 20.25V17.25" stroke="#186E77" stroke-width="2" stroke-linecap="round" stroke-linejoin="round"/>
<path d="M12.75 17.25V21" stroke="#186E77" stroke-width="2" stroke-linecap="round" stroke-linejoin="round"/>
<path d="M12.75 3V6.75" stroke="#186E77" stroke-width="2" stroke-linecap="round" stroke-linejoin="round"/>
<path d="M13.5 6.75H3.75C3.33579 6.75 3 7.08579 3 7.5V16.5C3 16.9142 3.33579 17.25 3.75 17.25H13.5C13.9142 17.25 14.25 16.9142 14.25 16.5V7.5C14.25 7.08579 13.9142 6.75 13.5 6.75Z" stroke="#186E77" stroke-width="2" stroke-linecap="round" stroke-linejoin="round"/>
<path d="M6.9375 9.75L10.3125 14.25" stroke="#186E77" stroke-width="2" stroke-linecap="round" stroke-linejoin="round"/>
<path d="M10.3125 9.75L6.9375 14.25" stroke="#186E77" stroke-width="2" stroke-linecap="round" stroke-linejoin="round"/>
</svg>
