<svg width="32" height="32" viewBox="0 0 32 32" fill="none" xmlns="http://www.w3.org/2000/svg">
<path d="M25.8267 6.51997L18.0134 3.03997C16.8667 2.53331 15.1334 2.53331 13.9867 3.03997L6.17335 6.51997C4.20002 7.39997 3.90668 8.59997 3.90668 9.23997C3.90668 9.87997 4.20002 11.08 6.17335 11.96L13.9867 15.44C14.56 15.6933 15.28 15.8266 16 15.8266C16.72 15.8266 17.44 15.6933 18.0134 15.44L25.8267 11.96C27.8 11.08 28.0934 9.87997 28.0934 9.23997C28.0934 8.59997 27.8134 7.39997 25.8267 6.51997Z" fill="#6D6AFE"/>
<path d="M16 22.72C15.4933 22.72 14.9866 22.6134 14.52 22.4134L5.53332 18.4134C4.15998 17.8 3.09332 16.16 3.09332 14.6534C3.09332 14.1067 3.53332 13.6667 4.07998 13.6667C4.62665 13.6667 5.06665 14.1067 5.06665 14.6534C5.06665 15.3734 5.66665 16.3067 6.33332 16.6L15.32 20.6C15.7466 20.7867 16.24 20.7867 16.6666 20.6L25.6533 16.6C26.32 16.3067 26.92 15.3867 26.92 14.6534C26.92 14.1067 27.36 13.6667 27.9067 13.6667C28.4533 13.6667 28.8933 14.1067 28.8933 14.6534C28.8933 16.1467 27.8267 17.8 26.4533 18.4134L17.4667 22.4134C17.0133 22.6134 16.5066 22.72 16 22.72Z" fill="#6D6AFE"/>
<path d="M16 29.3334C15.4933 29.3334 14.9866 29.2267 14.52 29.0267L5.53332 25.0267C4.05332 24.3734 3.09332 22.8934 3.09332 21.2667C3.09332 20.72 3.53332 20.28 4.07998 20.28C4.62665 20.28 5.06665 20.72 5.06665 21.2667C5.06665 22.1067 5.55998 22.8667 6.33332 23.2134L15.32 27.2134C15.7466 27.4 16.24 27.4 16.6666 27.2134L25.6533 23.2134C26.4133 22.88 26.92 22.1067 26.92 21.2667C26.92 20.72 27.36 20.28 27.9067 20.28C28.4533 20.28 28.8933 20.72 28.8933 21.2667C28.8933 22.8934 27.9333 24.36 26.4533 25.0267L17.4667 29.0267C17.0133 29.2267 16.5066 29.3334 16 29.3334Z" fill="#6D6AFE"/>
</svg>
