<svg width="20" height="30" viewBox="0 0 20 30" fill="none" xmlns="http://www.w3.org/2000/svg">
<path d="M19.2 15.4941C19.2 14.8941 18.7412 14.4353 18.1412 14.4353C17.5412 14.4353 17.0824 14.8941 17.0824 15.4941C17.0824 19.6235 13.7294 22.9765 9.6 22.9765C5.47059 22.9765 2.11765 19.6235 2.11765 15.4941C2.11765 14.8941 1.65882 14.4353 1.05882 14.4353C0.458824 14.4353 0 14.8941 0 15.4941C0 20.4 3.67059 24.5294 8.54118 25.0588V27.8824H4.69412C4.09412 27.8824 3.63529 28.3412 3.63529 28.9412C3.63529 29.5412 4.09412 30 4.69412 30H14.5059C15.1059 30 15.5647 29.5412 15.5647 28.9412C15.5647 28.3412 15.1059 27.8824 14.5059 27.8824H10.6588V25.0588C15.5294 24.5294 19.2 20.4 19.2 15.4941Z" fill="#903938"/>
<path d="M9.60017 0C6.35311 0 3.70605 2.64706 3.70605 5.89412V15.4588C3.70605 18.7412 6.35311 21.3529 9.60017 21.3882C12.8472 21.3882 15.4943 18.7412 15.4943 15.4941V5.89412C15.4943 2.64706 12.8472 0 9.60017 0Z" fill="#903938"/>
</svg>
