<svg width="28" height="29" viewBox="0 0 28 29" fill="none" xmlns="http://www.w3.org/2000/svg">
<path d="M3.11248 24.2522C3.10533 23.8772 3.11606 23.5092 3.3808 23.1979C3.61811 22.9183 3.90908 22.7391 4.27757 22.7285C4.77723 22.7143 5.2769 22.7285 5.77775 22.7285C5.77298 23.6142 5.76821 24.5011 5.76344 25.3868C5.3246 25.3868 4.88456 25.3927 4.44571 25.3844C3.74571 25.3715 3.19 24.895 3.11368 24.2522H3.11248Z" fill="#6A000E"/>
<path d="M5.7714 13.5819C5.7714 10.1765 5.7714 6.77233 5.775 3.36696C5.775 2.5213 6.10439 1.8661 6.90453 1.49957C7.10935 1.40614 7.32256 1.375 7.54655 1.375C11.5089 1.3774 15.4713 1.3762 19.4336 1.3762C19.5714 1.3762 19.7091 1.37859 19.8481 1.37979C19.9391 1.51275 19.9331 1.66367 19.9331 1.8146C19.9331 3.06032 19.9331 4.30604 19.9331 5.55176C19.9331 5.65717 19.9307 5.76377 19.9415 5.86918C19.9642 6.08598 20.0852 6.20217 20.3008 6.22373C20.4062 6.23451 20.5128 6.23212 20.6182 6.23212C21.8556 6.23212 23.0917 6.23212 24.3291 6.23212C24.4884 6.23212 24.6489 6.22373 24.7902 6.31716C24.8741 6.39741 24.8381 6.50043 24.8393 6.59385C24.8405 12.9926 24.8393 19.3913 24.8417 25.7899C24.8417 26.7985 23.9997 27.6286 23.021 27.625C17.8705 27.6034 12.7187 27.6082 7.56812 27.6226C6.7584 27.625 5.8792 26.9207 5.81692 26.0367C5.80135 25.8175 5.78098 25.5983 5.7726 25.3791C5.69235 25.2952 5.68995 25.1874 5.68995 25.0832C5.68636 24.3729 5.68636 23.6614 5.68995 22.9511C5.68995 22.8541 5.69474 22.7571 5.75343 22.6732C5.90077 22.5583 6.07445 22.593 6.23975 22.593C9.64631 22.5906 13.0529 22.5918 16.4606 22.5918C17.7172 22.5918 18.9737 22.5918 20.2302 22.5918C20.3188 22.5918 20.4074 22.5918 20.4961 22.5918C21.5262 22.5762 22.0448 22.0588 22.0472 21.0227C22.052 19.0942 22.0484 17.1645 22.0496 15.236C22.0496 15.0672 22.0281 14.9007 21.9981 14.7354C21.8963 14.1652 21.4591 13.7568 20.8794 13.6921C20.7296 13.6753 20.5787 13.6813 20.429 13.6813C15.712 13.6813 10.9962 13.6813 6.27927 13.6789C6.10918 13.6789 5.92233 13.7304 5.775 13.5867L5.7714 13.5819Z" fill="#F52833"/>
<path d="M24.7891 6.31591C23.3134 6.31591 21.8377 6.31711 20.362 6.31591C19.9919 6.31591 19.8481 6.17217 19.8469 5.80564C19.8469 4.32994 19.8469 2.85424 19.8469 1.37854C19.8948 1.41687 19.9463 1.45041 19.9895 1.49353C21.5502 3.05308 23.111 4.61382 24.6705 6.17457C24.7136 6.21769 24.7496 6.268 24.7891 6.31591Z" fill="#FF5F71"/>
<path d="M5.891 12.9471C6.009 12.9497 6.127 12.9562 6.245 12.9562C11.2207 12.9562 16.1975 12.9562 21.1732 12.9562C21.8775 12.9562 22.3999 13.3372 22.5892 13.9848C22.6507 14.1968 22.6666 14.4165 22.6666 14.6389C22.6666 16.8002 22.6666 18.9615 22.6666 21.1228C22.6666 22.1944 22.0914 22.803 21.0798 22.803C16.1496 22.803 11.2182 22.803 6.28802 22.803C6.16141 22.803 6.03481 22.8147 5.9082 22.8199C5.80741 22.9031 5.68818 22.8979 5.57018 22.8979C5.18914 22.9005 4.8081 22.8901 4.42829 22.9018C3.77192 22.9213 3.27165 23.4571 3.24706 24.1515C3.24215 24.2724 3.26673 24.4051 3.16225 24.5C3.0799 24.2867 3.12169 24.0631 3.12169 23.8459C3.118 20.7743 3.12169 17.7027 3.12169 14.6311C3.12169 13.5453 3.67604 12.9562 4.69625 12.9536C5.09573 12.9536 5.49398 12.9484 5.89345 12.9445L5.891 12.9471Z" fill="#F85E66"/>
<path d="M7 20.625V15.375H8.95833C9.31327 15.375 9.6196 15.4519 9.87732 15.6057C10.1366 15.7578 10.3364 15.9706 10.4769 16.244C10.6173 16.5157 10.6875 16.8319 10.6875 17.1925C10.6875 17.5548 10.6157 17.8718 10.4722 18.1436C10.3302 18.4136 10.1273 18.6229 9.86343 18.7716C9.59954 18.9203 9.28627 18.9946 8.92361 18.9946H7.71528V17.9949H8.71065C8.88349 17.9949 9.02778 17.9615 9.14352 17.8949C9.2608 17.8282 9.34954 17.7351 9.40972 17.6155C9.46991 17.4941 9.5 17.3531 9.5 17.1925C9.5 17.0302 9.46991 16.89 9.40972 16.7721C9.34954 16.6525 9.2608 16.5602 9.14352 16.4952C9.02623 16.4303 8.88194 16.3978 8.71065 16.3978H8.14583V20.625H7Z" fill="white"/>
<path d="M13.0046 20.625H11.2523V15.375H13.0023C13.4853 15.375 13.9012 15.4801 14.25 15.6903C14.6003 15.8988 14.8704 16.1996 15.0602 16.5927C15.25 16.984 15.3449 17.4523 15.3449 17.9974C15.3449 18.5443 15.25 19.0143 15.0602 19.4073C14.8719 19.8004 14.6026 20.1021 14.2523 20.3123C13.902 20.5208 13.4861 20.625 13.0046 20.625ZM12.3981 19.5432H12.9606C13.2261 19.5432 13.4506 19.4937 13.6343 19.3945C13.8194 19.2937 13.9591 19.1305 14.0532 18.9049C14.1489 18.6776 14.1968 18.3751 14.1968 17.9974C14.1968 17.6198 14.1489 17.319 14.0532 17.0951C13.9576 16.8695 13.8164 16.7072 13.6296 16.608C13.4444 16.5072 13.216 16.4568 12.9444 16.4568H12.3981V19.5432Z" fill="white"/>
<path d="M16.0139 20.625V15.375H19.25V16.4055H17.1597V17.4822H19.044V18.5153H17.1597V20.625H16.0139Z" fill="white"/>
<path d="M15.1385 9.0708C17.1185 9.0708 19.0984 9.0708 21.0784 9.0708C21.5084 9.0708 21.7803 9.3427 21.7312 9.70923C21.6941 9.98593 21.4929 10.1836 21.2126 10.2111C21.1227 10.2195 21.0329 10.2159 20.9431 10.2159C17.055 10.2159 13.1669 10.2159 9.2788 10.2159C8.76135 10.2159 8.49424 10.0267 8.48346 9.65533C8.47268 9.27443 8.74937 9.0708 9.28 9.0708C11.2324 9.0708 13.1861 9.0708 15.1385 9.0708Z" fill="white"/>
<path d="M12.5199 6.08923C13.6075 6.08923 14.6963 6.08923 15.7839 6.08923C15.9192 6.08923 16.0534 6.08923 16.1804 6.14673C16.408 6.24854 16.5433 6.4905 16.5134 6.73964C16.4834 6.99118 16.299 7.18882 16.0438 7.22595C15.9384 7.24153 15.8282 7.24153 15.7216 7.24153C13.5727 7.24153 11.4227 7.24153 9.2738 7.24153C8.75875 7.24153 8.48924 7.04868 8.48325 6.67736C8.47726 6.29406 8.75395 6.08923 9.28099 6.08923C10.3602 6.08923 11.4394 6.08923 12.5187 6.08923H12.5199Z" fill="white"/>
</svg>
