<svg width="30" height="30" viewBox="0 0 30 30" fill="none" xmlns="http://www.w3.org/2000/svg">
<path fill-rule="evenodd" clip-rule="evenodd" d="M6.25 6C6.11193 6 6 6.11193 6 6.25V11.25C6 11.3881 6.11193 11.5 6.25 11.5H11.25C11.3881 11.5 11.5 11.3881 11.5 11.25V6.25C11.5 6.11193 11.3881 6 11.25 6H6.25ZM4 6.25C4 5.00736 5.00736 4 6.25 4H11.25C12.4926 4 13.5 5.00736 13.5 6.25V11.25C13.5 12.4926 12.4926 13.5 11.25 13.5H6.25C5.00736 13.5 4 12.4926 4 11.25V6.25Z" fill="#3F68FB"/>
<path fill-rule="evenodd" clip-rule="evenodd" d="M8.75 20.25C9.30228 20.25 9.75 20.6977 9.75 21.25V21.2625C9.75 21.8148 9.30228 22.2625 8.75 22.2625C8.19772 22.2625 7.75 21.8148 7.75 21.2625V21.25C7.75 20.6977 8.19772 20.25 8.75 20.25Z" fill="#3F68FB"/>
<path fill-rule="evenodd" clip-rule="evenodd" d="M18.75 6C18.6119 6 18.5 6.11193 18.5 6.25V11.25C18.5 11.3881 18.6119 11.5 18.75 11.5H23.75C23.8881 11.5 24 11.3881 24 11.25V6.25C24 6.11193 23.8881 6 23.75 6H18.75ZM16.5 6.25C16.5 5.00736 17.5074 4 18.75 4H23.75C24.9926 4 26 5.00736 26 6.25V11.25C26 12.4926 24.9926 13.5 23.75 13.5H18.75C17.5074 13.5 16.5 12.4926 16.5 11.25V6.25Z" fill="#3F68FB"/>
<path fill-rule="evenodd" clip-rule="evenodd" d="M8.75 7.75C9.30228 7.75 9.75 8.19772 9.75 8.75V8.7625C9.75 9.31479 9.30228 9.7625 8.75 9.7625C8.19772 9.7625 7.75 9.31479 7.75 8.7625V8.75C7.75 8.19772 8.19772 7.75 8.75 7.75Z" fill="#3F68FB"/>
<path fill-rule="evenodd" clip-rule="evenodd" d="M6.25 18.5C6.11193 18.5 6 18.6119 6 18.75V23.75C6 23.8881 6.11193 24 6.25 24H11.25C11.3881 24 11.5 23.8881 11.5 23.75V18.75C11.5 18.6119 11.3881 18.5 11.25 18.5H6.25ZM4 18.75C4 17.5074 5.00736 16.5 6.25 16.5H11.25C12.4926 16.5 13.5 17.5074 13.5 18.75V23.75C13.5 24.9926 12.4926 26 11.25 26H6.25C5.00736 26 4 24.9926 4 23.75V18.75Z" fill="#3F68FB"/>
<path fill-rule="evenodd" clip-rule="evenodd" d="M21.25 7.75C21.8023 7.75 22.25 8.19772 22.25 8.75V8.7625C22.25 9.31479 21.8023 9.7625 21.25 9.7625C20.6977 9.7625 20.25 9.31479 20.25 8.7625V8.75C20.25 8.19772 20.6977 7.75 21.25 7.75Z" fill="#3F68FB"/>
<path fill-rule="evenodd" clip-rule="evenodd" d="M16.5 17.5C16.5 16.9477 16.9477 16.5 17.5 16.5H21.25C21.8023 16.5 22.25 16.9477 22.25 17.5C22.25 18.0523 21.8023 18.5 21.25 18.5H17.5C16.9477 18.5 16.5 18.0523 16.5 17.5Z" fill="#3F68FB"/>
<path fill-rule="evenodd" clip-rule="evenodd" d="M25 16.5C25.5523 16.5 26 16.9477 26 17.5V17.5125C26 18.0648 25.5523 18.5125 25 18.5125C24.4477 18.5125 24 18.0648 24 17.5125V17.5C24 16.9477 24.4477 16.5 25 16.5Z" fill="#3F68FB"/>
<path fill-rule="evenodd" clip-rule="evenodd" d="M17.5 16.5C18.0523 16.5 18.5 16.9477 18.5 17.5V21.25C18.5 21.8023 18.0523 22.25 17.5 22.25C16.9477 22.25 16.5 21.8023 16.5 21.25V17.5C16.5 16.9477 16.9477 16.5 17.5 16.5Z" fill="#3F68FB"/>
<path fill-rule="evenodd" clip-rule="evenodd" d="M16.5 25C16.5 24.4477 16.9477 24 17.5 24H21.25C21.8023 24 22.25 24.4477 22.25 25C22.25 25.5523 21.8023 26 21.25 26H17.5C16.9477 26 16.5 25.5523 16.5 25Z" fill="#3F68FB"/>
<path fill-rule="evenodd" clip-rule="evenodd" d="M20.25 21.25C20.25 20.6977 20.6977 20.25 21.25 20.25H25C25.5523 20.25 26 20.6977 26 21.25C26 21.8023 25.5523 22.25 25 22.25H21.25C20.6977 22.25 20.25 21.8023 20.25 21.25Z" fill="#3F68FB"/>
<path fill-rule="evenodd" clip-rule="evenodd" d="M25 20.25C25.5523 20.25 26 20.6977 26 21.25V25C26 25.5523 25.5523 26 25 26C24.4477 26 24 25.5523 24 25V21.25C24 20.6977 24.4477 20.25 25 20.25Z" fill="#3F68FB"/>
</svg>
