<svg width="30" height="30" viewBox="0 0 30 30" fill="none" xmlns="http://www.w3.org/2000/svg">
<path fill-rule="evenodd" clip-rule="evenodd" d="M15 5C9.47715 5 5 9.47715 5 15C5 20.5228 9.47715 25 15 25C20.5228 25 25 20.5228 25 15C25 9.47715 20.5228 5 15 5ZM2.5 15C2.5 8.09644 8.09644 2.5 15 2.5C21.9036 2.5 27.5 8.09644 27.5 15C27.5 21.9036 21.9036 27.5 15 27.5C8.09644 27.5 2.5 21.9036 2.5 15Z" fill="#AE4B78"/>
<path fill-rule="evenodd" clip-rule="evenodd" d="M10 12.5C10 11.8096 10.5596 11.25 11.25 11.25H11.2625C11.9529 11.25 12.5125 11.8096 12.5125 12.5C12.5125 13.1904 11.9529 13.75 11.2625 13.75H11.25C10.5596 13.75 10 13.1904 10 12.5Z" fill="#AE4B78"/>
<path fill-rule="evenodd" clip-rule="evenodd" d="M17.5 12.5C17.5 11.8096 18.0596 11.25 18.75 11.25H18.7625C19.4529 11.25 20.0125 11.8096 20.0125 12.5C20.0125 13.1904 19.4529 13.75 18.7625 13.75H18.75C18.0596 13.75 17.5 13.1904 17.5 12.5Z" fill="#AE4B78"/>
<path fill-rule="evenodd" clip-rule="evenodd" d="M11.0002 17.8571C11.4933 17.374 12.2847 17.3821 12.7679 17.8752C13.0588 18.1721 13.4061 18.4081 13.7894 18.5691C14.1727 18.7302 14.5843 18.8131 15 18.8131C15.4157 18.8131 15.8273 18.7302 16.2106 18.5691C16.5939 18.4081 16.9412 18.1721 17.2321 17.8752C17.7153 17.3821 18.5067 17.374 18.9998 17.8571C19.4929 18.3403 19.501 19.1317 19.0179 19.6248C18.4941 20.1594 17.869 20.584 17.1791 20.8739C16.4892 21.1638 15.7483 21.3131 15 21.3131C14.2517 21.3131 13.5108 21.1638 12.8209 20.8739C12.131 20.584 11.5059 20.1594 10.9821 19.6248C10.499 19.1317 10.5071 18.3403 11.0002 17.8571Z" fill="#AE4B78"/>
</svg>
