<svg width="30" height="18" viewBox="0 0 30 18" fill="none" xmlns="http://www.w3.org/2000/svg">
<path d="M16.9695 0H3.2823C1.47703 0 0 1.47703 0 3.2823V14.3436C0 16.1489 1.47703 17.6259 3.2823 17.6259H16.9695C18.7747 17.6259 20.2518 16.1489 20.2518 14.3436V3.2823C20.2518 1.44421 18.7747 0 16.9695 0Z" fill="#903938"/>
<path d="M27.5709 1.80507C27.374 1.83789 27.1771 1.93636 27.013 2.03483L21.8926 4.98889V12.6038L27.0458 15.5579C27.9976 16.1159 29.1793 15.7876 29.7373 14.8358C29.9014 14.5404 29.9998 14.2121 29.9998 13.8511V3.7088C29.9998 2.49435 28.851 1.50966 27.5709 1.80507Z" fill="#903938"/>
</svg>
