<svg width="30" height="30" viewBox="0 0 30 30" fill="none" xmlns="http://www.w3.org/2000/svg">
<path d="M6.25 18.75C3.4875 18.75 1.25 20.9875 1.25 23.75C1.25 24.6875 1.5125 25.575 1.975 26.325C2.8375 27.775 4.425 28.75 6.25 28.75C8.075 28.75 9.6625 27.775 10.525 26.325C10.9875 25.575 11.25 24.6875 11.25 23.75C11.25 20.9875 9.0125 18.75 6.25 18.75ZM8.7125 23.3375L6.05 25.8C5.875 25.9625 5.6375 26.05 5.4125 26.05C5.175 26.05 4.9375 25.9625 4.75 25.775L3.5125 24.5375C3.15 24.175 3.15 23.575 3.5125 23.2125C3.875 22.85 4.475 22.85 4.8375 23.2125L5.4375 23.8125L7.4375 21.9625C7.8125 21.6125 8.4125 21.6375 8.7625 22.0125C9.1125 22.3875 9.0875 22.9875 8.7125 23.3375Z" fill="#10B348"/>
<path d="M22.1875 8.81246C21.8875 8.76246 21.575 8.74998 21.25 8.74998H8.74999C8.39999 8.74998 8.06249 8.77497 7.73749 8.82497C7.91249 8.47497 8.16249 8.15001 8.46249 7.85001L12.525 3.775C14.2375 2.075 17.0125 2.075 18.725 3.775L20.9125 5.98745C21.7125 6.77495 22.1375 7.77496 22.1875 8.81246Z" fill="#10B348"/>
<path opacity="0.4" d="M27.5 15V21.25C27.5 25 25 27.5 21.25 27.5H9.5375C9.925 27.175 10.2625 26.775 10.525 26.325C10.9875 25.575 11.25 24.6875 11.25 23.75C11.25 20.9875 9.0125 18.75 6.25 18.75C4.75 18.75 3.4125 19.4125 2.5 20.45V15C2.5 11.6 4.55 9.225 7.7375 8.825C8.0625 8.775 8.4 8.75 8.75 8.75H21.25C21.575 8.75 21.8875 8.76248 22.1875 8.81248C25.4125 9.18748 27.5 11.575 27.5 15Z" fill="#10B348"/>
<path d="M27.5 15.625H23.75C22.375 15.625 21.25 16.75 21.25 18.125C21.25 19.5 22.375 20.625 23.75 20.625H27.5" fill="#10B348"/>
</svg>
